<svg width="252" height="57" viewBox="0 0 252 57" fill="none" xmlns="http://www.w3.org/2000/svg">
<rect x="2" width="250" height="50" rx="25" fill="#333333"/>
<rect x="0.5" y="7.5" width="249" height="49" rx="24.5" fill="#F5F5F3" stroke="#333333"/>
<path d="M68.965 26.245V27.385H66.115V28.855C66.115 29.545 66.255 30.245 66.535 30.955C66.825 31.665 67.225 32.31 67.735 32.89C68.255 33.47 68.835 33.91 69.475 34.21L68.695 35.29C67.965 34.94 67.315 34.415 66.745 33.715C66.185 33.015 65.75 32.225 65.44 31.345C65.14 32.295 64.695 33.155 64.105 33.925C63.515 34.685 62.855 35.25 62.125 35.62L61.33 34.54C61.97 34.23 62.55 33.77 63.07 33.16C63.6 32.54 64.015 31.85 64.315 31.09C64.615 30.33 64.765 29.585 64.765 28.855V27.385H61.795V26.245H68.965ZM70.39 24.925H71.77V30.205H73.87V31.345H71.77V38.155H70.39V24.925ZM79.9304 35.335V32.185H81.2804V35.335H86.6504V36.46H74.6654V35.335H79.9304ZM75.1004 31.255C75.9304 31.115 76.7104 30.825 77.4404 30.385C78.1804 29.935 78.7704 29.39 79.2104 28.75C79.6604 28.11 79.8854 27.45 79.8854 26.77V25.75H81.3254V26.77C81.3254 27.45 81.5504 28.11 82.0004 28.75C82.4504 29.38 83.0454 29.92 83.7854 30.37C84.5254 30.82 85.3054 31.115 86.1254 31.255L85.5404 32.41C84.4704 32.19 83.4854 31.76 82.5854 31.12C81.6954 30.48 81.0354 29.71 80.6054 28.81C80.1754 29.7 79.5104 30.47 78.6104 31.12C77.7204 31.76 76.7404 32.19 75.6704 32.41L75.1004 31.255ZM97.3307 29.335V24.895H98.6957V38.17H97.3307V30.445H94.3907V29.335H97.3307ZM87.7157 34.285C88.3657 33.965 88.9457 33.49 89.4557 32.86C89.9757 32.23 90.3807 31.515 90.6707 30.715C90.9607 29.915 91.1057 29.105 91.1057 28.285V26.02H92.4707V28.285C92.4707 29.085 92.6107 29.875 92.8907 30.655C93.1807 31.425 93.5757 32.11 94.0757 32.71C94.5857 33.3 95.1657 33.75 95.8157 34.06L95.0057 35.155C94.2757 34.785 93.6307 34.245 93.0707 33.535C92.5207 32.815 92.0957 31.995 91.7957 31.075C91.5057 32.035 91.0757 32.895 90.5057 33.655C89.9457 34.415 89.3007 34.99 88.5707 35.38L87.7157 34.285ZM109.308 31.72C109.698 31.72 110.053 31.625 110.373 31.435C110.703 31.235 110.963 30.97 111.153 30.64C111.353 30.3 111.453 29.94 111.453 29.56C111.453 29.17 111.358 28.81 111.168 28.48C110.978 28.15 110.718 27.89 110.388 27.7C110.058 27.51 109.698 27.415 109.308 27.415H106.308V31.72H109.308ZM104.973 26.11H109.308C109.928 26.11 110.498 26.265 111.018 26.575C111.548 26.885 111.963 27.305 112.263 27.835C112.573 28.355 112.728 28.93 112.728 29.56C112.728 30.18 112.573 30.755 112.263 31.285C111.963 31.815 111.548 32.235 111.018 32.545C110.498 32.855 109.928 33.01 109.308 33.01H106.308V37.06H104.973V26.11ZM117.791 35.725C118.531 35.725 119.216 35.54 119.846 35.17C120.486 34.8 120.991 34.3 121.361 33.67C121.731 33.03 121.916 32.335 121.916 31.585C121.916 30.835 121.731 30.145 121.361 29.515C120.991 28.875 120.486 28.37 119.846 28C119.216 27.63 118.531 27.445 117.791 27.445H115.991V35.725H117.791ZM114.656 26.11H117.791C118.771 26.11 119.681 26.355 120.521 26.845C121.361 27.335 122.026 28 122.516 28.84C123.006 29.68 123.251 30.595 123.251 31.585C123.251 32.575 123.006 33.49 122.516 34.33C122.026 35.17 121.361 35.835 120.521 36.325C119.681 36.815 118.771 37.06 117.791 37.06H114.656V26.11ZM132.004 27.4H126.274V30.925H131.254V32.23H126.274V37.06H124.939V26.11H132.004V27.4ZM146.829 24.895V30.055H148.929V31.195H146.829V38.17H145.449V24.895H146.829ZM137.169 26.2H143.319V27.295H138.519V33.745C139.719 33.745 140.754 33.715 141.624 33.655C142.504 33.585 143.394 33.465 144.294 33.295L144.444 34.45C143.484 34.63 142.539 34.75 141.609 34.81C140.679 34.87 139.549 34.9 138.219 34.9H137.169V26.2ZM161.694 31.57V32.68H156.489V35.26H155.094V32.68H149.709V31.57H161.694ZM151.014 27.91C151.014 27.37 151.209 26.9 151.599 26.5C151.989 26.09 152.534 25.775 153.234 25.555C153.934 25.335 154.749 25.225 155.679 25.225C156.619 25.225 157.439 25.335 158.139 25.555C158.849 25.775 159.394 26.09 159.774 26.5C160.164 26.9 160.359 27.37 160.359 27.91C160.359 28.45 160.164 28.925 159.774 29.335C159.394 29.735 158.849 30.045 158.139 30.265C157.439 30.475 156.619 30.58 155.679 30.58C154.749 30.58 153.934 30.475 153.234 30.265C152.534 30.045 151.989 29.735 151.599 29.335C151.209 28.925 151.014 28.45 151.014 27.91ZM151.209 33.985H152.589V36.745H160.374V37.87H151.209V33.985ZM152.484 27.91C152.484 28.39 152.774 28.77 153.354 29.05C153.934 29.33 154.709 29.47 155.679 29.47C156.659 29.47 157.439 29.33 158.019 29.05C158.609 28.77 158.904 28.39 158.904 27.91C158.904 27.42 158.609 27.035 158.019 26.755C157.439 26.475 156.659 26.335 155.679 26.335C154.709 26.335 153.934 26.475 153.354 26.755C152.774 27.035 152.484 27.42 152.484 27.91ZM168.115 35.425V33.055H164.29V28.87H172V26.965H164.26V25.855H173.365V29.95H165.64V31.945H173.665V33.055H169.48V35.425H174.805V36.55H162.82V35.425H168.115ZM186.43 26.095V27.22H178.78V31.195H186.565V32.305H177.43V26.095H186.43ZM175.93 35.26H187.915V36.385H175.93V35.26Z" fill="#333333"/>
</svg>
